<svg width="100%" height="auto" viewBox="0 0 189 48" fill="none" xmlns="http://www.w3.org/2000/svg">
<path fill-rule="evenodd" clip-rule="evenodd" d="M0 5.64209H5.01493V42.157H41.6866V47.1719H0V5.64209Z" fill="#A72264"/>
<path fill-rule="evenodd" clip-rule="evenodd" d="M10.9701 0H15.985V31.0299H30.7164V36.0448H10.9701V0Z" fill="#A72264"/>
<path fill-rule="evenodd" clip-rule="evenodd" d="M42 36.0449H36.9851V10.3434H22.2537V5.3285H42V36.0449Z" fill="#A72264"/>
<path d="M51.8536 32.0859V14.5859H54.5036V29.9859H62.4536V32.0859H51.8536ZM66.7058 17.3359C66.2058 17.3359 65.7891 17.1859 65.4558 16.8859C65.1391 16.5693 64.9808 16.1776 64.9808 15.7109C64.9808 15.2443 65.1391 14.8609 65.4558 14.5609C65.7891 14.2443 66.2058 14.0859 66.7058 14.0859C67.2058 14.0859 67.6141 14.2443 67.9308 14.5609C68.2641 14.8609 68.4308 15.2443 68.4308 15.7109C68.4308 16.1776 68.2641 16.5693 67.9308 16.8859C67.6141 17.1859 67.2058 17.3359 66.7058 17.3359ZM65.3808 32.0859V19.6859H68.0308V32.0859H65.3808ZM76.604 28.2859C75.954 28.2859 75.354 28.2109 74.804 28.0609L73.729 29.1109C73.9123 29.2276 74.1373 29.3276 74.404 29.4109C74.6707 29.4943 75.0457 29.5693 75.529 29.6359C76.0123 29.7026 76.6707 29.7693 77.504 29.8359C79.154 29.9859 80.3457 30.3859 81.079 31.0359C81.8123 31.6693 82.179 32.5193 82.179 33.5859C82.179 34.3193 81.979 35.0109 81.579 35.6609C81.1957 36.3276 80.5873 36.8609 79.754 37.2609C78.9373 37.6776 77.8873 37.8859 76.604 37.8859C74.8707 37.8859 73.4623 37.5526 72.379 36.8859C71.3123 36.2359 70.779 35.2443 70.779 33.9109C70.779 33.3943 70.9123 32.8776 71.179 32.3609C71.4623 31.8609 71.904 31.3859 72.504 30.9359C72.154 30.7859 71.8457 30.6276 71.579 30.4609C71.329 30.2776 71.104 30.0943 70.904 29.9109V29.3109L73.054 27.1109C72.0873 26.2776 71.604 25.1859 71.604 23.8359C71.604 23.0193 71.7957 22.2776 72.179 21.6109C72.579 20.9276 73.154 20.3859 73.904 19.9859C74.654 19.5859 75.554 19.3859 76.604 19.3859C77.304 19.3859 77.954 19.4859 78.554 19.6859H83.179V21.4359L80.979 21.5609C81.379 22.2443 81.579 23.0026 81.579 23.8359C81.579 24.6693 81.379 25.4193 80.979 26.0859C80.5957 26.7526 80.029 27.2859 79.279 27.6859C78.5457 28.0859 77.654 28.2859 76.604 28.2859ZM76.604 26.2109C77.3707 26.2109 77.9873 26.0109 78.454 25.6109C78.9373 25.1943 79.179 24.6109 79.179 23.8609C79.179 23.0943 78.9373 22.5109 78.454 22.1109C77.9873 21.7109 77.3707 21.5109 76.604 21.5109C75.8207 21.5109 75.1873 21.7109 74.704 22.1109C74.2373 22.5109 74.004 23.0943 74.004 23.8609C74.004 24.6109 74.2373 25.1943 74.704 25.6109C75.1873 26.0109 75.8207 26.2109 76.604 26.2109ZM73.279 33.6609C73.279 34.3776 73.5957 34.9109 74.229 35.2609C74.8623 35.6276 75.654 35.8109 76.604 35.8109C77.5207 35.8109 78.2623 35.6109 78.829 35.2109C79.3957 34.8276 79.679 34.3109 79.679 33.6609C79.679 33.1776 79.4873 32.7609 79.104 32.4109C78.7207 32.0776 77.9957 31.8693 76.929 31.7859C76.129 31.7359 75.4207 31.6609 74.804 31.5609C74.2207 31.8776 73.8207 32.2193 73.604 32.5859C73.3873 32.9526 73.279 33.3109 73.279 33.6609ZM85.5427 32.0859V14.0859H88.1927V21.6859C88.6093 20.9693 89.1843 20.4109 89.9177 20.0109C90.6677 19.5943 91.4927 19.3859 92.3927 19.3859C93.876 19.3859 95.0427 19.8526 95.8927 20.7859C96.7427 21.7193 97.1677 23.1109 97.1677 24.9609V32.0859H94.5427V25.2359C94.5427 22.8359 93.5843 21.6359 91.6677 21.6359C90.6677 21.6359 89.8343 21.9859 89.1677 22.6859C88.5177 23.3859 88.1927 24.3859 88.1927 25.6859V32.0859H85.5427ZM105.489 32.0859C104.272 32.0859 103.305 31.7943 102.589 31.2109C101.872 30.6109 101.514 29.5526 101.514 28.0359V21.9109H99.3888V19.6859H101.514L101.839 16.5359H104.164V19.6859H107.664V21.9109H104.164V28.0359C104.164 28.7193 104.305 29.1943 104.589 29.4609C104.889 29.7109 105.397 29.8359 106.114 29.8359H107.539V32.0859H105.489ZM110.396 32.0859V14.0859H113.046V32.0859H110.396ZM117.852 37.5859L120.827 31.0609H120.102L115.202 19.6859H118.077L121.877 28.8609L125.852 19.6859H128.652L120.652 37.5859H117.852ZM134.931 32.0859V17.1609H129.831V14.5859H143.256V17.1609H138.131V32.0859H134.931ZM144.331 32.0859V19.6859H147.181L147.481 22.0109C147.931 21.2109 148.539 20.5776 149.306 20.1109C150.089 19.6276 151.006 19.3859 152.056 19.3859V22.7609H151.156C150.456 22.7609 149.831 22.8693 149.281 23.0859C148.731 23.3026 148.297 23.6776 147.981 24.2109C147.681 24.7443 147.531 25.4859 147.531 26.4359V32.0859H144.331ZM158.518 32.3859C157.451 32.3859 156.576 32.2193 155.893 31.8859C155.209 31.5359 154.701 31.0776 154.368 30.5109C154.034 29.9443 153.868 29.3193 153.868 28.6359C153.868 27.4859 154.318 26.5526 155.218 25.8359C156.118 25.1193 157.468 24.7609 159.268 24.7609H162.418V24.4609C162.418 23.6109 162.176 22.9859 161.693 22.5859C161.209 22.1859 160.609 21.9859 159.893 21.9859C159.243 21.9859 158.676 22.1443 158.193 22.4609C157.709 22.7609 157.409 23.2109 157.293 23.8109H154.168C154.251 22.9109 154.551 22.1276 155.068 21.4609C155.601 20.7943 156.284 20.2859 157.118 19.9359C157.951 19.5693 158.884 19.3859 159.918 19.3859C161.684 19.3859 163.076 19.8276 164.093 20.7109C165.109 21.5943 165.618 22.8443 165.618 24.4609V32.0859H162.893L162.593 30.0859C162.226 30.7526 161.709 31.3026 161.043 31.7359C160.393 32.1693 159.551 32.3859 158.518 32.3859ZM159.243 29.8859C160.159 29.8859 160.868 29.5859 161.368 28.9859C161.884 28.3859 162.209 27.6443 162.343 26.7609H159.618C158.768 26.7609 158.159 26.9193 157.793 27.2359C157.426 27.5359 157.243 27.9109 157.243 28.3609C157.243 28.8443 157.426 29.2193 157.793 29.4859C158.159 29.7526 158.643 29.8859 159.243 29.8859ZM170.396 17.7609C169.813 17.7609 169.33 17.5859 168.946 17.2359C168.58 16.8859 168.396 16.4443 168.396 15.9109C168.396 15.3776 168.58 14.9443 168.946 14.6109C169.33 14.2609 169.813 14.0859 170.396 14.0859C170.98 14.0859 171.455 14.2609 171.821 14.6109C172.205 14.9443 172.396 15.3776 172.396 15.9109C172.396 16.4443 172.205 16.8859 171.821 17.2359C171.455 17.5859 170.98 17.7609 170.396 17.7609ZM168.796 32.0859V19.6859H171.996V32.0859H168.796ZM175.336 32.0859V19.6859H178.161L178.411 21.7859C178.795 21.0526 179.345 20.4693 180.061 20.0359C180.795 19.6026 181.653 19.3859 182.636 19.3859C184.17 19.3859 185.361 19.8693 186.211 20.8359C187.061 21.8026 187.486 23.2193 187.486 25.0859V32.0859H184.286V25.3859C184.286 24.3193 184.07 23.5026 183.636 22.9359C183.203 22.3693 182.528 22.0859 181.611 22.0859C180.711 22.0859 179.97 22.4026 179.386 23.0359C178.82 23.6693 178.536 24.5526 178.536 25.6859V32.0859H175.336Z" fill="#1A1A1A"/>
</svg>
